<svg width="239" height="39" viewBox="0 0 239 39" fill="none" xmlns="http://www.w3.org/2000/svg">
<mask id="mask0_600_1346" style="mask-type:luminance" maskUnits="userSpaceOnUse" x="150" y="0" width="35" height="39">
<path d="M150.922 0H184.901V38.51H150.922V0Z" fill="white"/>
</mask>
<g mask="url(#mask0_600_1346)">
<mask id="mask1_600_1346" style="mask-type:luminance" maskUnits="userSpaceOnUse" x="144" y="-6" width="50" height="52">
<path d="M144.043 31.667L178.061 -5.3623L193.039 8.40054L159.021 45.4269L144.043 31.667Z" fill="white"/>
</mask>
<g mask="url(#mask1_600_1346)">
<mask id="mask2_600_1346" style="mask-type:luminance" maskUnits="userSpaceOnUse" x="144" y="-6" width="50" height="52">
<path d="M144.047 31.6673L178.065 -5.36206L193.043 8.40079L159.025 45.4272L144.047 31.6673Z" fill="white"/>
</mask>
<g mask="url(#mask2_600_1346)">
<path d="M151.207 38.2507L151.487 37.7375C152.381 36.2716 153.071 34.5342 153.564 32.5285L153.859 30.5523C153.989 26.9744 154.098 24.9274 154.192 24.4112C154.304 23.3346 154.617 22.2314 155.13 21.1106C155.811 19.9042 156.652 18.9603 157.652 18.279C159.283 17.167 161.103 16.1966 163.12 15.3707C163.616 12.9136 164.056 11.256 164.439 10.4006C165.008 9.27089 165.356 8.65147 165.48 8.53939C165.905 7.95242 166.495 7.40969 167.247 6.91416C168.085 6.42157 169.049 6.04107 170.141 5.76676C170.332 5.63993 172.777 5.22108 177.485 4.51318C178.355 4.30081 179.187 4.04714 179.986 3.75513C181.311 3.22125 182.765 2.1594 184.349 0.57251L183.718 5.14144C183.352 10.8666 183.072 13.9342 182.871 14.3472C182.272 17.0136 181.617 18.9426 180.91 20.1402C179.594 22.5677 177.777 25.0247 175.459 27.5083C174.382 28.6881 173.016 29.9653 171.365 31.3457C170.486 32.0802 169.329 32.8943 167.896 33.788C166.778 34.4487 165.33 35.0534 163.545 35.599L161.551 36.0946L151.207 38.2507Z" fill="#FF009D"/>
</g>
</g>
</g>
<mask id="mask3_600_1346" style="mask-type:luminance" maskUnits="userSpaceOnUse" x="151" y="0" width="34" height="39">
<path d="M151.676 0.755127H184.9V38.51H151.676V0.755127Z" fill="white"/>
</mask>
<g mask="url(#mask3_600_1346)">
<mask id="mask4_600_1346" style="mask-type:luminance" maskUnits="userSpaceOnUse" x="144" y="-6" width="50" height="52">
<path d="M144.043 31.667L178.061 -5.3623L193.039 8.40054L159.021 45.4269L144.043 31.667Z" fill="white"/>
</mask>
<g mask="url(#mask4_600_1346)">
<mask id="mask5_600_1346" style="mask-type:luminance" maskUnits="userSpaceOnUse" x="144" y="-6" width="50" height="52">
<path d="M144.047 31.6673L178.065 -5.36206L193.043 8.40079L159.025 45.4272L144.047 31.6673Z" fill="white"/>
</mask>
<g mask="url(#mask5_600_1346)">
<path d="M183.887 2.22714L183.727 2.5221C182.424 7.95822 181.707 11.7986 180.683 14.7187C180.179 16.1581 179.633 17.5444 179.02 18.8718L178.046 20.8067C177.669 21.4969 175.421 23.4584 173.702 25.6145C172.362 27.2988 171.245 28.8237 171.245 28.8237C170.165 29.6702 169.024 30.4519 167.835 31.1922C164.873 33.0446 160.549 34.5843 154.346 37.062L151.945 37.8023L152.057 38.0029C160.452 36.1889 165.903 34.7908 169.581 32.0476C171.439 30.6643 172.985 27.4993 174.448 25.9066C176.76 23.3905 179.633 22.6767 180.854 19.5325C182.807 14.5093 183.541 8.57174 184.217 1.45435C184.046 1.54873 183.686 2.43656 183.656 2.37757L183.887 2.22714Z" fill="#3E122E" fill-opacity="0.118"/>
</g>
</g>
</g>
<mask id="mask6_600_1346" style="mask-type:luminance" maskUnits="userSpaceOnUse" x="161" y="24" width="10" height="10">
<path d="M161.496 24.1631H170.557V33.2243H161.496V24.1631Z" fill="white"/>
</mask>
<g mask="url(#mask6_600_1346)">
<mask id="mask7_600_1346" style="mask-type:luminance" maskUnits="userSpaceOnUse" x="144" y="-6" width="50" height="52">
<path d="M144.047 31.6673L178.065 -5.36206L193.043 8.40079L159.025 45.4272L144.047 31.6673Z" fill="white"/>
</mask>
<g mask="url(#mask7_600_1346)">
<mask id="mask8_600_1346" style="mask-type:luminance" maskUnits="userSpaceOnUse" x="144" y="-6" width="50" height="52">
<path d="M144.051 31.6673L178.069 -5.36206L193.047 8.40079L159.029 45.4272L144.051 31.6673Z" fill="white"/>
</mask>
<g mask="url(#mask8_600_1346)">
<path d="M163.249 28.5024L163.116 28.6529C162.771 29.057 162.517 29.4846 162.349 29.933C162.211 30.3577 162.099 30.7648 162.013 31.1512C161.933 31.452 161.871 31.9063 161.824 32.5139L165.399 29.2074L167.909 27.5998L168.08 27.4789C168.579 27.1368 169.057 26.7091 169.514 26.1988C169.93 25.7062 170.251 25.2225 170.478 24.7446C170.537 24.6031 170.552 24.4821 170.528 24.3818C170.534 24.3494 170.496 24.2874 170.408 24.196C170.387 24.1783 170.36 24.1783 170.328 24.1901C170.263 24.2196 170.21 24.255 170.166 24.2992C169.564 24.9364 169.213 25.2903 169.116 25.364C168.906 25.5499 168.626 25.7504 168.278 25.9717C167.983 26.1575 167.546 26.3728 166.965 26.6176C165.612 27.1191 164.824 27.4229 164.606 27.532C164.387 27.6352 164.14 27.7798 163.865 27.9597C163.629 28.1249 163.423 28.3048 163.249 28.5024Z" fill="#FEFDFE" fill-opacity="0.141"/>
</g>
</g>
</g>
<mask id="mask9_600_1346" style="mask-type:luminance" maskUnits="userSpaceOnUse" x="156" y="22" width="3" height="6">
<path d="M156.207 22.6528H158.472V27.1834H156.207V22.6528Z" fill="white"/>
</mask>
<g mask="url(#mask9_600_1346)">
<mask id="mask10_600_1346" style="mask-type:luminance" maskUnits="userSpaceOnUse" x="144" y="-6" width="50" height="52">
<path d="M144.043 31.6673L178.061 -5.36206L193.039 8.40079L159.021 45.4272L144.043 31.6673Z" fill="white"/>
</mask>
<g mask="url(#mask10_600_1346)">
<mask id="mask11_600_1346" style="mask-type:luminance" maskUnits="userSpaceOnUse" x="144" y="-6" width="50" height="52">
<path d="M144.047 31.6673L178.065 -5.36206L193.043 8.40079L159.025 45.4272L144.047 31.6673Z" fill="white"/>
</mask>
<g mask="url(#mask11_600_1346)">
<path d="M157.485 22.9803L157.417 23.057C157.329 23.1632 157.249 23.2812 157.175 23.408L157.122 23.5024C157.09 23.5673 157.057 23.6381 157.028 23.7059L156.983 23.8151L156.904 24.1041L156.839 24.3961L156.792 24.6881C156.768 24.8858 156.75 25.0834 156.748 25.284C156.739 25.6851 156.771 26.0951 156.851 26.508L157.072 25.2043C157.172 24.8415 157.326 24.3843 157.532 23.8269C157.565 23.7531 157.624 23.6499 157.712 23.5201C157.736 23.4847 157.865 23.3372 158.101 23.0747C158.163 22.9951 158.196 22.939 158.199 22.9095C158.211 22.8387 158.187 22.7768 158.128 22.7237C158.075 22.6942 158.004 22.6795 157.91 22.6854C157.821 22.7001 157.762 22.7208 157.733 22.7503C157.626 22.8387 157.544 22.9154 157.485 22.9803Z" fill="#FEFDFE" fill-opacity="0.141"/>
</g>
</g>
</g>
<mask id="mask12_600_1346" style="mask-type:luminance" maskUnits="userSpaceOnUse" x="161" y="24" width="10" height="10">
<path d="M161.496 24.1631H170.557V33.2243H161.496V24.1631Z" fill="white"/>
</mask>
<g mask="url(#mask12_600_1346)">
<mask id="mask13_600_1346" style="mask-type:luminance" maskUnits="userSpaceOnUse" x="144" y="-6" width="50" height="52">
<path d="M144.047 31.6673L178.065 -5.36206L193.043 8.40079L159.025 45.4272L144.047 31.6673Z" fill="white"/>
</mask>
<g mask="url(#mask13_600_1346)">
<mask id="mask14_600_1346" style="mask-type:luminance" maskUnits="userSpaceOnUse" x="144" y="-6" width="50" height="52">
<path d="M144.051 31.6673L178.069 -5.36206L193.047 8.40079L159.029 45.4272L144.051 31.6673Z" fill="white"/>
</mask>
<g mask="url(#mask14_600_1346)">
<path d="M163.249 28.5024L163.116 28.6529C162.771 29.057 162.517 29.4846 162.349 29.933C162.211 30.3577 162.099 30.7648 162.013 31.1512C161.933 31.452 161.871 31.9063 161.824 32.5139L165.399 29.2074L167.909 27.5998L168.08 27.4789C168.579 27.1368 169.057 26.7091 169.514 26.1988C169.93 25.7062 170.251 25.2225 170.478 24.7446C170.537 24.6031 170.552 24.4821 170.528 24.3818C170.534 24.3494 170.496 24.2874 170.408 24.196C170.387 24.1783 170.36 24.1783 170.328 24.1901C170.263 24.2196 170.21 24.255 170.166 24.2992C169.564 24.9364 169.213 25.2903 169.116 25.364C168.906 25.5499 168.626 25.7504 168.278 25.9717C167.983 26.1575 167.546 26.3728 166.965 26.6176C165.612 27.1191 164.824 27.4229 164.606 27.532C164.387 27.6352 164.14 27.7798 163.865 27.9597C163.629 28.1249 163.423 28.3048 163.249 28.5024Z" fill="#FEFDFE" fill-opacity="0.141"/>
</g>
</g>
</g>
<mask id="mask15_600_1346" style="mask-type:luminance" maskUnits="userSpaceOnUse" x="156" y="22" width="3" height="6">
<path d="M156.207 22.6528H158.472V27.1834H156.207V22.6528Z" fill="white"/>
</mask>
<g mask="url(#mask15_600_1346)">
<mask id="mask16_600_1346" style="mask-type:luminance" maskUnits="userSpaceOnUse" x="144" y="-6" width="50" height="52">
<path d="M144.043 31.6673L178.061 -5.36206L193.039 8.40079L159.021 45.4272L144.043 31.6673Z" fill="white"/>
</mask>
<g mask="url(#mask16_600_1346)">
<mask id="mask17_600_1346" style="mask-type:luminance" maskUnits="userSpaceOnUse" x="144" y="-6" width="50" height="52">
<path d="M144.047 31.6673L178.065 -5.36206L193.043 8.40079L159.025 45.4272L144.047 31.6673Z" fill="white"/>
</mask>
<g mask="url(#mask17_600_1346)">
<path d="M157.485 22.9803L157.417 23.057C157.329 23.1632 157.249 23.2812 157.175 23.408L157.122 23.5024C157.09 23.5673 157.057 23.6381 157.028 23.7059L156.983 23.8151L156.904 24.1041L156.839 24.3961L156.792 24.6881C156.768 24.8858 156.75 25.0834 156.748 25.284C156.739 25.6851 156.771 26.0951 156.851 26.508L157.072 25.2043C157.172 24.8415 157.326 24.3843 157.532 23.8269C157.565 23.7531 157.624 23.6499 157.712 23.5201C157.736 23.4847 157.865 23.3372 158.101 23.0747C158.163 22.9951 158.196 22.939 158.199 22.9095C158.211 22.8387 158.187 22.7768 158.128 22.7237C158.075 22.6942 158.004 22.6795 157.91 22.6854C157.821 22.7001 157.762 22.7208 157.733 22.7503C157.626 22.8387 157.544 22.9154 157.485 22.9803Z" fill="#FEFDFE" fill-opacity="0.141"/>
</g>
</g>
</g>
<mask id="mask18_600_1346" style="mask-type:luminance" maskUnits="userSpaceOnUse" x="153" y="1" width="32" height="38">
<path d="M153.188 1.51001H184.902V38.5098H153.188V1.51001Z" fill="white"/>
</mask>
<g mask="url(#mask18_600_1346)">
<mask id="mask19_600_1346" style="mask-type:luminance" maskUnits="userSpaceOnUse" x="144" y="-6" width="50" height="52">
<path d="M144.043 31.667L178.061 -5.3623L193.039 8.40054L159.021 45.4269L144.043 31.667Z" fill="white"/>
</mask>
<g mask="url(#mask19_600_1346)">
<mask id="mask20_600_1346" style="mask-type:luminance" maskUnits="userSpaceOnUse" x="144" y="-6" width="50" height="52">
<path d="M144.047 31.6673L178.065 -5.36206L193.043 8.40079L159.025 45.4272L144.047 31.6673Z" fill="white"/>
</mask>
<g mask="url(#mask20_600_1346)">
<path d="M153.285 37.7701L153.48 37.4869C154.261 36.3247 154.813 35.3927 155.132 34.6848L155.848 33.092C157.037 30.0834 157.739 28.3962 157.954 28.0275C158.441 26.9863 158.996 26.01 159.624 25.0986C160.175 24.3169 160.821 23.5972 161.565 22.9336C161.895 22.6356 162.228 22.3525 162.571 22.0811L165.069 20.1314C165.75 19.5622 166.275 19.0548 166.641 18.6094L167.092 18.0284C167.346 17.6685 167.582 17.2939 167.803 16.9075C168.847 14.8959 169.505 13.6836 169.773 13.2736C170.021 12.8725 170.293 12.4831 170.59 12.1026L171.065 11.5451C171.649 10.9464 172.121 10.5216 172.484 10.268C172.918 9.9376 173.375 9.62199 173.853 9.32408C174.334 9.02323 174.823 8.73711 175.322 8.46575C177.811 7.16792 179.218 6.42462 179.545 6.227C179.764 6.11787 180.259 5.80521 181.032 5.28608C181.967 4.67256 183.064 3.66085 184.324 2.25684C183.846 3.12107 183.439 3.79653 183.1 4.28616C182.262 5.50435 181.23 6.58095 180 7.52188C179.044 8.31237 176.994 9.68689 173.85 11.6425L167.812 19.574L161.323 24.9039L155.208 36.2481L153.285 37.7701Z" fill="#3E122E" fill-opacity="0.149"/>
</g>
</g>
</g>
<mask id="mask21_600_1346" style="mask-type:luminance" maskUnits="userSpaceOnUse" x="159" y="10" width="17" height="19">
<path d="M159.227 10.5715H175.839V28.6939H159.227V10.5715Z" fill="white"/>
</mask>
<g mask="url(#mask21_600_1346)">
<mask id="mask22_600_1346" style="mask-type:luminance" maskUnits="userSpaceOnUse" x="144" y="-6" width="50" height="52">
<path d="M144.043 31.6673L178.061 -5.36206L193.039 8.40079L159.021 45.4272L144.043 31.6673Z" fill="white"/>
</mask>
<g mask="url(#mask22_600_1346)">
<mask id="mask23_600_1346" style="mask-type:luminance" maskUnits="userSpaceOnUse" x="144" y="-6" width="50" height="52">
<path d="M144.047 31.6675L178.065 -5.36182L193.043 8.40103L159.025 45.4274L144.047 31.6675Z" fill="white"/>
</mask>
<g mask="url(#mask23_600_1346)">
<path d="M172.135 13.3119L174.114 11.2708L175.754 10.7546C174.79 11.492 174.035 12.1174 173.486 12.6306C172.929 13.1468 172.448 13.6865 172.044 14.2558C171.858 14.4859 171.607 14.9342 171.286 15.5949C171.141 15.8899 170.802 16.7541 170.262 18.1876C170.15 18.462 170.029 18.7274 169.899 18.9781C169.77 19.2318 169.625 19.4648 169.469 19.6831C169.368 19.8188 169.262 19.9486 169.15 20.0695C168.829 20.4116 168.475 20.7095 168.088 20.9603C167.897 21.0871 167.699 21.208 167.498 21.3231L165.705 22.2699L165.13 22.6061C164.578 22.9512 164.068 23.3288 163.602 23.7417C162.989 24.2845 162.399 24.9216 161.835 25.6619C161.319 26.3256 160.682 27.2429 159.918 28.4139L160.95 25.2047C161.089 24.8036 161.564 24.2579 162.369 23.5648C163.301 22.7743 164.891 21.5708 167.144 19.9515L172.135 13.3119Z" fill="#3E122E" fill-opacity="0.318"/>
</g>
</g>
</g>
<mask id="mask24_600_1346" style="mask-type:luminance" maskUnits="userSpaceOnUse" x="173" y="2" width="12" height="11">
<path d="M173.574 2.26562H184.146V12.0819H173.574V2.26562Z" fill="white"/>
</mask>
<g mask="url(#mask24_600_1346)">
<mask id="mask25_600_1346" style="mask-type:luminance" maskUnits="userSpaceOnUse" x="144" y="-6" width="50" height="52">
<path d="M144.043 31.6673L178.061 -5.36206L193.039 8.40079L159.021 45.4272L144.043 31.6673Z" fill="white"/>
</mask>
<g mask="url(#mask25_600_1346)">
<mask id="mask26_600_1346" style="mask-type:luminance" maskUnits="userSpaceOnUse" x="144" y="-6" width="50" height="52">
<path d="M144.047 31.6673L178.065 -5.36206L193.043 8.40079L159.025 45.4272L144.047 31.6673Z" fill="white"/>
</mask>
<g mask="url(#mask26_600_1346)">
<path d="M183.92 2.45728L183.701 2.93511C183.047 4.37157 182.489 5.44522 182.032 6.15018C181.454 7.05571 180.87 7.77246 180.274 8.29454L179.846 8.65439L179.392 8.9877L178.917 9.2974C178.59 9.49798 178.254 9.6838 177.903 9.85783C177.032 10.3003 175.72 10.8194 173.965 11.4211L180.663 7.1324L183.92 2.45728Z" fill="#3E122E" fill-opacity="0.318"/>
</g>
</g>
</g>
<mask id="mask27_600_1346" style="mask-type:luminance" maskUnits="userSpaceOnUse" x="153" y="25" width="8" height="13">
<path d="M153.188 25.6733H160.738V37.7549H153.188V25.6733Z" fill="white"/>
</mask>
<g mask="url(#mask27_600_1346)">
<mask id="mask28_600_1346" style="mask-type:luminance" maskUnits="userSpaceOnUse" x="144" y="-6" width="50" height="52">
<path d="M144.043 31.667L178.061 -5.3623L193.039 8.40054L159.021 45.4269L144.043 31.667Z" fill="white"/>
</mask>
<g mask="url(#mask28_600_1346)">
<mask id="mask29_600_1346" style="mask-type:luminance" maskUnits="userSpaceOnUse" x="144" y="-6" width="50" height="52">
<path d="M144.047 31.6673L178.065 -5.36206L193.043 8.40079L159.025 45.4272L144.047 31.6673Z" fill="white"/>
</mask>
<g mask="url(#mask29_600_1346)">
<path d="M153.258 37.5781L153.579 37.404C154.01 37.174 154.435 36.9292 154.854 36.6725C155.272 36.4159 155.679 36.1298 156.072 35.8083C156.747 35.2508 157.299 34.6344 157.735 33.9619C157.936 33.6521 158.128 33.3159 158.31 32.9531L158.576 32.3986C158.75 32.0151 158.912 31.614 159.071 31.1951C159.467 30.1569 159.965 28.5641 160.561 26.4138C160.464 26.5082 160.358 26.6527 160.245 26.8445C160.119 27.0509 159.897 27.4403 159.588 28.0096C159.13 28.8443 157.954 31.0771 156.051 34.7052L153.258 37.5781Z" fill="#3E122E" fill-opacity="0.318"/>
</g>
</g>
</g>
<mask id="mask30_600_1346" style="mask-type:luminance" maskUnits="userSpaceOnUse" x="150" y="0" width="35" height="39">
<path d="M150.922 0.755127H184.901V38.51H150.922V0.755127Z" fill="white"/>
</mask>
<g mask="url(#mask30_600_1346)">
<mask id="mask31_600_1346" style="mask-type:luminance" maskUnits="userSpaceOnUse" x="144" y="-6" width="50" height="52">
<path d="M144.043 31.667L178.061 -5.3623L193.039 8.40054L159.021 45.4269L144.043 31.667Z" fill="white"/>
</mask>
<g mask="url(#mask31_600_1346)">
<mask id="mask32_600_1346" style="mask-type:luminance" maskUnits="userSpaceOnUse" x="144" y="-6" width="50" height="52">
<path d="M144.047 31.6673L178.065 -5.36206L193.043 8.40079L159.025 45.4272L144.047 31.6673Z" fill="white"/>
</mask>
<g mask="url(#mask32_600_1346)">
<path d="M151.729 37.4573C152.865 37.1712 153.944 36.8998 155.039 35.7082C155.354 35.3631 155.676 34.9384 155.997 34.4133C156.569 33.4813 157.142 32.2365 157.767 30.8856C158.478 29.3459 159.248 27.6735 160.133 26.2311C160.448 25.7149 160.781 25.2224 161.132 24.777C161.321 24.5381 161.513 24.3139 161.711 24.1015C162.831 22.8804 164.073 22.0397 165.2 21.2728C166.176 20.6092 167.058 20.0104 167.737 19.2701H167.74C168.462 18.4796 168.973 17.518 169.521 16.4797C170.117 15.3471 170.757 14.1319 171.769 13.0287C171.878 12.9078 171.993 12.7898 172.114 12.6718C173.356 11.4566 175.114 10.4213 176.777 9.43904C178.087 8.66624 179.337 7.92589 180.287 7.14719C180.641 6.85518 180.951 6.56022 181.228 6.25936C182.635 4.72852 183.148 3.06494 183.676 1.34827C183.715 1.21554 183.856 1.1418 183.986 1.1831C184.119 1.22144 184.192 1.36302 184.151 1.49575C183.626 3.20652 183.086 4.97334 181.597 6.59857C181.302 6.91418 180.974 7.22683 180.606 7.53359C179.618 8.34178 178.329 9.10278 177.031 9.86968C175.353 10.8607 173.654 11.8636 172.462 13.0287C172.35 13.1408 172.241 13.2529 172.137 13.3679H172.135C171.173 14.415 170.562 15.5742 169.961 16.7098C169.418 17.7422 168.884 18.7627 168.105 19.6063C167.377 20.3998 166.448 21.031 165.48 21.6858C164.351 22.4527 163.153 23.2668 162.076 24.4378C161.891 24.6442 161.705 24.8596 161.525 25.0867C161.189 25.5144 160.867 25.9863 160.557 26.4907C159.693 27.9035 158.935 29.5494 158.221 31.095C157.602 32.4371 157.012 33.7113 156.425 34.6729C156.086 35.2245 155.747 35.6728 155.407 36.0445C154.204 37.3541 152.997 37.652 151.85 37.941C151.717 37.9735 151.582 37.8939 151.546 37.7582C151.514 37.6254 151.593 37.4898 151.729 37.4573Z" fill="#FDCBAA"/>
</g>
</g>
</g>
<path d="M28.6465 27.4684L29.0949 27.8813C28.1894 29.0847 27.0921 30.1702 25.8031 31.1377C24.6852 31.9488 23.2812 32.6921 21.5911 33.3676C19.9069 34.043 17.9365 34.3822 15.6801 34.3822C13.5092 34.3822 11.471 33.9693 9.56851 33.1434C7.67192 32.3175 6.00834 31.1967 4.57778 29.7808C3.14428 28.365 2.02343 26.7103 1.21524 24.8137C0.404095 22.9112 0 20.873 0 18.7021C0 16.5401 0.404095 14.5019 1.21524 12.5906C2.02343 10.6733 3.14428 9.00384 4.57778 7.58803C6.00834 6.17222 7.67192 5.05137 9.56851 4.22549C11.471 3.3937 13.5092 2.97485 15.6801 2.97485C17.7861 2.97485 19.5677 3.08104 21.0248 3.29341C22.4878 3.50578 23.6558 3.73585 24.5289 3.97772C25.5583 4.27858 26.3871 4.60893 27.0184 4.96879L26.4756 8.27234C25.9949 7.39336 25.2722 6.59402 24.3047 5.87726C23.4936 5.27259 22.3934 4.71512 21.0012 4.20189C19.6149 3.69161 17.8421 3.43499 15.6801 3.43499C13.7216 3.43499 11.9695 3.84794 10.4298 4.67382C8.896 5.49971 7.60998 6.59402 6.57172 7.95378C5.53345 9.30765 4.74886 10.8532 4.22383 12.5906C3.69585 14.322 3.43924 16.0829 3.45693 17.8762C3.47168 19.6637 3.76959 21.4246 4.35361 23.1619C4.94353 24.8934 5.84021 26.436 7.04365 27.7869C8.24709 29.1408 9.76908 30.2351 11.6096 31.0669C13.4502 31.8928 15.6329 32.3057 18.1578 32.3057C19.8803 32.3057 21.3935 32.0579 22.7001 31.5624C24.0127 31.0669 25.107 30.5182 25.9801 29.9106C27.0007 29.188 27.8914 28.3739 28.6465 27.4684Z" fill="#B73832"/>
<path d="M42.8832 2.97461C45.0453 2.97461 47.0746 3.39345 48.9712 4.22524C50.8737 5.05113 52.5402 6.17198 53.9737 7.58779C55.4043 9.0036 56.5251 10.6642 57.3363 12.5667C58.1533 14.4633 58.5633 16.4926 58.5633 18.6547C58.5633 20.8256 58.1533 22.8726 57.3363 24.7899C56.5251 26.7012 55.4043 28.3648 53.9737 29.7806C52.5402 31.1964 50.8737 32.3173 48.9712 33.1432C47.0746 33.969 45.0453 34.382 42.8832 34.382C40.7123 34.382 38.6741 33.969 36.7716 33.1432C34.875 32.3173 33.2115 31.1964 31.7809 29.7806C30.3474 28.3648 29.2266 26.7012 28.4184 24.7899C27.6072 22.8726 27.2031 20.8256 27.2031 18.6547C27.2031 16.4926 27.6072 14.4633 28.4184 12.5667C29.2266 10.6642 30.3474 9.0036 31.7809 7.58779C33.2115 6.17198 34.875 5.05113 36.7716 4.22524C38.6741 3.39345 40.7123 2.97461 42.8832 2.97461ZM42.8832 33.9336C44.535 33.9336 46.0924 33.5384 47.5554 32.742C49.0184 31.9397 50.2926 30.8484 51.3781 29.462C52.4635 28.0787 53.3189 26.4623 53.9501 24.6129C54.5784 22.7576 54.894 20.7725 54.894 18.6547C54.894 16.5487 54.5784 14.5783 53.9501 12.7437C53.3189 10.9031 52.4635 9.29266 51.3781 7.90635C50.2926 6.52298 49.0184 5.43458 47.5554 4.63819C46.0924 3.83589 44.535 3.43475 42.8832 3.43475C41.2226 3.43475 39.6622 3.83589 38.1992 4.63819C36.7362 5.43458 35.462 6.52298 34.3766 7.90635C33.297 9.29266 32.4416 10.9031 31.8045 12.7437C31.1733 14.5783 30.8606 16.5487 30.8606 18.6547C30.8606 20.7725 31.1733 22.7576 31.8045 24.6129C32.4416 26.4623 33.297 28.0787 34.3766 29.462C35.462 30.8484 36.7362 31.9397 38.1992 32.742C39.6622 33.5384 41.2226 33.9336 42.8832 33.9336Z" fill="#B73832"/>
<path d="M74.781 33.9338H56.3401V33.8866C57.0067 33.801 57.5819 33.5149 58.0627 33.0253L58.2868 32.7539C58.7116 32.2761 58.9505 31.6301 59.0065 30.819V6.41987C59.0065 6.02757 58.9387 5.65887 58.806 5.31082C58.6703 4.96571 58.4815 4.656 58.2396 4.37874L58.157 4.24896C57.9122 4.00709 57.632 3.80062 57.3194 3.63544C57.0037 3.47026 56.6645 3.37293 56.3047 3.34048V3.24609H65.0709V3.34048C64.4338 3.37293 63.8439 3.65904 63.3011 4.20177L63.1242 4.37874C62.6434 4.95391 62.4045 5.61757 62.4045 6.37267V33.0725L62.4517 33.1197H67.3244C68.8346 33.1197 70.2888 32.9044 71.6898 32.4708C73.0879 32.0313 74.4211 31.3912 75.6895 30.5476L76.0434 30.3234L74.781 33.9338Z" fill="#B73832"/>
<path d="M89.7895 2.97485C91.9515 2.97485 93.9808 3.3937 95.8774 4.22549C97.7799 5.05137 99.4465 6.17222 100.88 7.58803C102.311 9.00384 103.431 10.6645 104.243 12.567C105.06 14.4636 105.47 16.4929 105.47 18.6549C105.47 20.8259 105.06 22.8729 104.243 24.7901C103.431 26.7015 102.311 28.365 100.88 29.7808C99.4465 31.1967 97.7799 32.3175 95.8774 33.1434C93.9808 33.9693 91.9515 34.3822 89.7895 34.3822C87.6186 34.3822 85.5804 33.9693 83.6779 33.1434C81.7813 32.3175 80.1177 31.1967 78.6872 29.7808C77.2537 28.365 76.1328 26.7015 75.3246 24.7901C74.5135 22.8729 74.1094 20.8259 74.1094 18.6549C74.1094 16.4929 74.5135 14.4636 75.3246 12.567C76.1328 10.6645 77.2537 9.00384 78.6872 7.58803C80.1177 6.17222 81.7813 5.05137 83.6779 4.22549C85.5804 3.3937 87.6186 2.97485 89.7895 2.97485ZM89.7895 33.9339C91.4412 33.9339 92.9986 33.5386 94.4616 32.7422C95.9246 31.94 97.1989 30.8486 98.2843 29.4623C99.3698 28.0789 100.225 26.4625 100.856 24.6131C101.485 22.7578 101.8 20.7728 101.8 18.6549C101.8 16.5489 101.485 14.5786 100.856 12.7439C100.225 10.9034 99.3698 9.2929 98.2843 7.90659C97.1989 6.52323 95.9246 5.43482 94.4616 4.63843C92.9986 3.83614 91.4412 3.43499 89.7895 3.43499C88.1288 3.43499 86.5685 3.83614 85.1055 4.63843C83.6425 5.43482 82.3683 6.52323 81.2828 7.90659C80.2033 9.2929 79.3479 10.9034 78.7108 12.7439C78.0795 14.5786 77.7669 16.5489 77.7669 18.6549C77.7669 20.7728 78.0795 22.7578 78.7108 24.6131C79.3479 26.4625 80.2033 28.0789 81.2828 29.4623C82.3683 30.8486 83.6425 31.94 85.1055 32.7422C86.5685 33.5386 88.1288 33.9339 89.7895 33.9339Z" fill="#B73832"/>
<path d="M117.483 18.8908C118.356 19.2211 119.114 19.7167 119.76 20.3774C120.412 21.0381 121.011 21.7932 121.554 22.6427C122.096 23.4863 122.615 24.3977 123.111 25.3799C123.606 26.3562 124.117 27.3384 124.645 28.3295C125.17 29.3206 125.742 30.2999 126.356 31.2673C126.975 32.2348 127.692 33.1256 128.503 33.9338H123.854C123.609 33.6919 123.323 33.1551 122.993 32.3292C122.663 31.5033 122.285 30.5329 121.86 29.415C121.441 28.3 120.97 27.132 120.445 25.9108C119.917 24.6927 119.335 23.5718 118.698 22.5483C118.067 21.5277 117.377 20.6782 116.622 19.9998C115.867 19.3155 115.053 18.9734 114.18 18.9734C113.336 18.9734 112.439 18.9675 111.49 18.9498C110.546 18.935 109.817 18.9262 109.307 18.9262V30.819C109.307 31.2142 109.372 31.5829 109.507 31.928C109.64 32.2761 109.829 32.5828 110.074 32.8483L110.156 32.9427C110.643 33.4854 111.248 33.801 111.973 33.8866V33.9338H103.207V33.8866C103.897 33.801 104.484 33.5149 104.965 33.0253L105.189 32.7539C105.643 32.2112 105.873 31.5682 105.873 30.819V6.05412C105.809 5.36391 105.531 4.76809 105.036 4.27256C104.54 3.77112 103.93 3.45847 103.207 3.34048V3.24609H116.445C118.403 3.24609 120.043 3.6089 121.365 4.33155C122.692 5.05715 123.704 5.97743 124.397 7.09238C125.087 8.21028 125.462 9.42551 125.518 10.7381C125.58 12.0448 125.323 13.2806 124.751 14.4428C124.185 15.599 123.291 16.5901 122.073 17.416C120.852 18.2419 119.324 18.7345 117.483 18.8908ZM115.855 18.3481C117.271 18.3481 118.451 17.9882 119.394 17.2626C120.344 16.54 121.061 15.6433 121.542 14.5726C122.028 13.5048 122.273 12.3427 122.273 11.092C122.273 9.84141 122.028 8.68221 121.542 7.61151C121.061 6.54375 120.344 5.64707 119.394 4.92147C118.451 4.19882 117.271 3.83601 115.855 3.83601H109.307V18.3481H115.855Z" fill="#B73832"/>
<path d="M157.856 9.22395C157.856 11.0498 157.432 12.5452 156.582 13.7073C155.739 14.8636 154.683 15.8252 153.408 16.5862C152.134 17.3501 150.757 17.9902 149.279 18.5093C147.807 19.0225 146.43 19.5417 145.15 20.0667C143.875 20.5947 142.813 21.2082 141.964 21.9072C141.12 22.6004 140.702 23.5118 140.702 24.6445V32.1955C140.702 33.0626 140.967 33.8089 141.504 34.4372L141.645 34.5315C142.179 35.1303 142.843 35.4813 143.639 35.5816V35.6288H133.988V35.5816C134.72 35.4813 135.351 35.1657 135.888 34.6377L136.183 34.331C136.678 33.741 136.926 33.0449 136.926 32.2426V4.95292C136.861 4.19192 136.554 3.53711 136.006 2.99438C135.463 2.44576 134.791 2.1036 133.988 1.96792V1.87354H148.217C149.341 1.87354 150.474 2.03281 151.615 2.34547C152.763 2.66108 153.801 3.12417 154.73 3.73768C155.656 4.3512 156.408 5.124 156.983 6.05017C157.564 6.9793 157.856 8.03821 157.856 9.22395ZM140.702 2.51065V22.6505C141.132 21.8571 141.778 21.1875 142.637 20.6448C143.501 20.0962 144.445 19.58 145.468 19.0992C146.498 18.6214 147.545 18.1258 148.607 17.6126C149.668 17.0935 150.639 16.4741 151.521 15.7485C152.4 15.017 153.119 14.1203 153.68 13.0584C154.246 11.9966 154.529 10.6722 154.529 9.08236C154.529 8.05295 154.343 7.13268 153.975 6.32154C153.612 5.51335 153.108 4.82314 152.465 4.25681C151.819 3.69049 151.049 3.25985 150.152 2.95899C149.255 2.66108 148.294 2.51065 147.273 2.51065H140.702Z" fill="#B73832"/>
<path d="M215.442 1.87378V1.96817C214.38 2.40176 213.548 3.09786 212.952 4.05649C212.354 5.01806 212.056 6.07991 212.056 7.24206V24.9397L212.009 24.9869C212.009 26.9159 211.658 28.5824 210.958 29.9894C210.265 31.3993 209.345 32.5585 208.198 33.4699C207.056 34.3843 205.755 35.0568 204.292 35.4875C202.835 35.9122 201.346 36.1069 199.821 36.0774C198.302 36.0449 196.812 35.7736 195.349 35.2633C193.892 34.7442 192.591 33.9891 191.444 32.998C190.302 32.001 189.382 30.7799 188.683 29.3405C187.99 27.9011 187.645 26.2346 187.645 24.338V5.35431C187.645 4.49008 187.379 3.74383 186.854 3.11261L186.701 2.95923C186.433 2.69967 186.135 2.4814 185.804 2.29852C185.474 2.10975 185.108 2.00061 184.707 1.96817V1.87378H194.358V1.96817C193.594 2.03896 192.948 2.35456 192.423 2.91204L192.223 3.11261C191.686 3.74383 191.42 4.46943 191.42 5.29532V23.7952C191.42 26.3525 191.907 28.4762 192.883 30.1664C193.866 31.8506 195.084 33.116 196.541 33.9655C198.004 34.809 199.579 35.2397 201.272 35.2633C202.962 35.281 204.534 34.8975 205.991 34.1188C207.446 33.3342 208.661 32.181 209.637 30.6619C210.619 29.137 211.112 27.2286 211.112 24.9397V7.28925C211.112 6.13301 210.835 5.0682 210.286 4.09188C209.743 3.10966 208.941 2.40176 207.879 1.96817V1.87378H215.442Z" fill="#B73832"/>
<path d="M239.002 6.05042C238.671 5.48409 238.108 5.00626 237.314 4.61101C236.518 4.20986 235.63 3.88836 234.648 3.64354C233.672 3.39283 232.669 3.2011 231.639 3.06542C230.616 2.93269 229.707 2.8501 228.914 2.81765H229.209V32.1957C229.209 33.0304 229.471 33.7619 229.999 34.3902L230.2 34.638C230.734 35.1659 231.38 35.4816 232.135 35.5818V35.629H222.496V35.5818C223.257 35.4816 223.923 35.1512 224.49 34.5908L224.631 34.3902C225.165 33.7619 225.433 33.0157 225.433 32.1485V2.81765H225.728C224.902 2.8501 223.973 2.93269 222.944 3.06542C221.912 3.2011 220.918 3.39283 219.959 3.64354C218.997 3.88836 218.121 4.20986 217.328 4.61101C216.531 5.00626 215.965 5.48409 215.629 6.05042L216.632 1.87378H238.01L239.002 6.05042Z" fill="#B73832"/>
</svg>
